<svg id="Calque_1" data-name="Calque 1" xmlns="http://www.w3.org/2000/svg" xmlns:xlink="http://www.w3.org/1999/xlink" viewBox="0 0 706.89 401.47"><defs><style>.cls-1{fill:url(#Dégradé_sans_nom_26);}.cls-2{fill:url(#Dégradé_sans_nom_26-2);}.cls-3{fill:url(#Dégradé_sans_nom_26-3);}.cls-4{fill:url(#Dégradé_sans_nom_26-4);}.cls-5{fill:url(#Dégradé_sans_nom_26-5);}.cls-6{fill:url(#Dégradé_sans_nom_26-6);}.cls-7{fill:url(#Dégradé_sans_nom_26-7);}.cls-8{fill:url(#Dégradé_sans_nom_26-8);}.cls-9{fill:url(#Dégradé_sans_nom_26-9);}.cls-10{fill:url(#Dégradé_sans_nom_26-10);}.cls-11{fill:url(#Dégradé_sans_nom_26-11);}.cls-12{fill:url(#Dégradé_sans_nom_26-12);}.cls-13{fill:url(#Dégradé_sans_nom_26-13);}.cls-14{fill:url(#Dégradé_sans_nom_26-14);}.cls-15{fill:url(#Dégradé_sans_nom_26-15);}.cls-16{fill:url(#Dégradé_sans_nom_26-16);}.cls-17{fill:url(#Dégradé_sans_nom_26-17);}.cls-18{fill:url(#Dégradé_sans_nom_26-18);}.cls-19{fill:url(#Dégradé_sans_nom_26-19);}.cls-20{fill:url(#Dégradé_sans_nom_26-21);}.cls-21{fill:#0f0f0f;}.cls-22{fill:url(#Dégradé_sans_nom_26-22);}.cls-23{fill:url(#Dégradé_sans_nom_26-23);}.cls-24{fill:url(#Dégradé_sans_nom_26-24);}.cls-25{fill:url(#Dégradé_sans_nom_26-25);}.cls-26{fill:url(#Dégradé_sans_nom_26-26);}.cls-27{fill:url(#Dégradé_sans_nom_26-27);}.cls-28{fill:url(#Dégradé_sans_nom_26-28);}.cls-29{fill:url(#Dégradé_sans_nom_26-29);}.cls-30{fill:url(#Dégradé_sans_nom_26-30);}.cls-31{fill:url(#Dégradé_sans_nom_26-31);}.cls-32{fill:url(#Dégradé_sans_nom_26-32);}.cls-33{fill:url(#Dégradé_sans_nom_26-33);}.cls-34{fill:url(#Dégradé_sans_nom_26-34);}.cls-35{fill:url(#Dégradé_sans_nom_26-35);}.cls-36{fill:url(#Dégradé_sans_nom_26-36);}.cls-37{fill:url(#Dégradé_sans_nom_26-37);}.cls-38{fill:url(#Dégradé_sans_nom_26-38);}.cls-39{fill:url(#Dégradé_sans_nom_26-39);}.cls-40{fill:url(#Dégradé_sans_nom_26-40);}.cls-41{fill:url(#Dégradé_sans_nom_26-42);}.cls-42{fill:#fff;}</style><linearGradient id="Dégradé_sans_nom_26" x1="564" y1="35.68" x2="622.33" y2="35.68" gradientUnits="userSpaceOnUse"><stop offset="0" stop-color="#e9b400"/><stop offset="1" stop-color="#a87c00"/></linearGradient><linearGradient id="Dégradé_sans_nom_26-2" x1="494.8" y1="133.34" x2="519.39" y2="133.34" xlink:href="#Dégradé_sans_nom_26"/><linearGradient id="Dégradé_sans_nom_26-3" x1="612.13" y1="133.34" x2="618.3" y2="133.34" xlink:href="#Dégradé_sans_nom_26"/><linearGradient id="Dégradé_sans_nom_26-4" x1="622.93" y1="133.34" x2="663.58" y2="133.34" xlink:href="#Dégradé_sans_nom_26"/><linearGradient id="Dégradé_sans_nom_26-5" x1="668.73" y1="133.34" x2="693.32" y2="133.34" xlink:href="#Dégradé_sans_nom_26"/><linearGradient id="Dégradé_sans_nom_26-6" x1="508.49" y1="116.74" x2="516.72" y2="116.74" xlink:href="#Dégradé_sans_nom_26"/><linearGradient id="Dégradé_sans_nom_26-7" x1="578.85" y1="133.34" x2="609.49" y2="133.34" xlink:href="#Dégradé_sans_nom_26"/><linearGradient id="Dégradé_sans_nom_26-8" x1="524.72" y1="133.31" x2="549.25" y2="133.31" xlink:href="#Dégradé_sans_nom_26"/><linearGradient id="Dégradé_sans_nom_26-9" x1="1378.89" y1="151.65" x2="1406.16" y2="151.65" xlink:href="#Dégradé_sans_nom_26"/><linearGradient id="Dégradé_sans_nom_26-10" x1="1393.64" y1="132" x2="1393.86" y2="132" xlink:href="#Dégradé_sans_nom_26"/><linearGradient id="Dégradé_sans_nom_26-11" x1="1520.64" y1="119.21" x2="1534.21" y2="119.21" xlink:href="#Dégradé_sans_nom_26"/><linearGradient id="Dégradé_sans_nom_26-12" x1="495.41" y1="133.34" x2="518.78" y2="133.34" xlink:href="#Dégradé_sans_nom_26"/><linearGradient id="Dégradé_sans_nom_26-13" x1="612.74" y1="133.34" x2="617.68" y2="133.34" xlink:href="#Dégradé_sans_nom_26"/><linearGradient id="Dégradé_sans_nom_26-14" x1="623.62" y1="133.34" x2="662.96" y2="133.34" xlink:href="#Dégradé_sans_nom_26"/><linearGradient id="Dégradé_sans_nom_26-15" x1="669.34" y1="133.34" x2="692.71" y2="133.34" xlink:href="#Dégradé_sans_nom_26"/><linearGradient id="Dégradé_sans_nom_26-16" x1="510.05" y1="114.54" x2="515.77" y2="114.54" xlink:href="#Dégradé_sans_nom_26"/><linearGradient id="Dégradé_sans_nom_26-17" x1="579.47" y1="133.34" x2="608.87" y2="133.34" xlink:href="#Dégradé_sans_nom_26"/><linearGradient id="Dégradé_sans_nom_26-18" x1="525.33" y1="133.31" x2="548.64" y2="133.31" xlink:href="#Dégradé_sans_nom_26"/><linearGradient id="Dégradé_sans_nom_26-19" x1="1379.81" y1="151.65" x2="1405.55" y2="151.65" xlink:href="#Dégradé_sans_nom_26"/><linearGradient id="Dégradé_sans_nom_26-21" x1="1525.16" y1="120.44" x2="1529.97" y2="120.44" xlink:href="#Dégradé_sans_nom_26"/><linearGradient id="Dégradé_sans_nom_26-22" x1="0" y1="284.15" x2="58.33" y2="284.15" xlink:href="#Dégradé_sans_nom_26"/><linearGradient id="Dégradé_sans_nom_26-23" x1="98.61" y1="293.94" x2="123.21" y2="293.94" xlink:href="#Dégradé_sans_nom_26"/><linearGradient id="Dégradé_sans_nom_26-24" x1="215.94" y1="293.94" x2="222.11" y2="293.94" xlink:href="#Dégradé_sans_nom_26"/><linearGradient id="Dégradé_sans_nom_26-25" x1="226.75" y1="293.94" x2="267.39" y2="293.94" xlink:href="#Dégradé_sans_nom_26"/><linearGradient id="Dégradé_sans_nom_26-26" x1="272.54" y1="293.94" x2="297.14" y2="293.94" xlink:href="#Dégradé_sans_nom_26"/><linearGradient id="Dégradé_sans_nom_26-27" x1="112.3" y1="277.34" x2="120.53" y2="277.34" xlink:href="#Dégradé_sans_nom_26"/><linearGradient id="Dégradé_sans_nom_26-28" x1="182.66" y1="293.94" x2="213.3" y2="293.94" xlink:href="#Dégradé_sans_nom_26"/><linearGradient id="Dégradé_sans_nom_26-29" x1="128.53" y1="293.9" x2="153.06" y2="293.9" xlink:href="#Dégradé_sans_nom_26"/><linearGradient id="Dégradé_sans_nom_26-30" x1="982.7" y1="312.25" x2="1009.97" y2="312.25" xlink:href="#Dégradé_sans_nom_26"/><linearGradient id="Dégradé_sans_nom_26-31" x1="997.45" y1="292.59" x2="997.67" y2="292.59" xlink:href="#Dégradé_sans_nom_26"/><linearGradient id="Dégradé_sans_nom_26-32" x1="1124.45" y1="279.8" x2="1138.02" y2="279.8" xlink:href="#Dégradé_sans_nom_26"/><linearGradient id="Dégradé_sans_nom_26-33" x1="99.22" y1="293.94" x2="122.59" y2="293.94" xlink:href="#Dégradé_sans_nom_26"/><linearGradient id="Dégradé_sans_nom_26-34" x1="216.55" y1="293.94" x2="221.49" y2="293.94" xlink:href="#Dégradé_sans_nom_26"/><linearGradient id="Dégradé_sans_nom_26-35" x1="227.43" y1="293.94" x2="266.77" y2="293.94" xlink:href="#Dégradé_sans_nom_26"/><linearGradient id="Dégradé_sans_nom_26-36" x1="273.15" y1="293.94" x2="296.52" y2="293.94" xlink:href="#Dégradé_sans_nom_26"/><linearGradient id="Dégradé_sans_nom_26-37" x1="113.86" y1="275.14" x2="119.58" y2="275.14" xlink:href="#Dégradé_sans_nom_26"/><linearGradient id="Dégradé_sans_nom_26-38" x1="183.28" y1="293.94" x2="212.68" y2="293.94" xlink:href="#Dégradé_sans_nom_26"/><linearGradient id="Dégradé_sans_nom_26-39" x1="129.15" y1="293.9" x2="152.45" y2="293.9" xlink:href="#Dégradé_sans_nom_26"/><linearGradient id="Dégradé_sans_nom_26-40" x1="983.62" y1="312.25" x2="1009.36" y2="312.25" xlink:href="#Dégradé_sans_nom_26"/><linearGradient id="Dégradé_sans_nom_26-42" x1="1128.97" y1="281.03" x2="1133.79" y2="281.03" xlink:href="#Dégradé_sans_nom_26"/></defs><polygon class="cls-1" points="582.38 0 582.38 6.91 587.27 6.91 587.27 13.03 564 13.03 564 71.36 622.33 71.36 622.33 61.42 573.94 61.42 573.94 22.97 612.39 22.97 612.39 37.23 588.2 37.23 588.2 47.16 622.33 47.16 622.33 13.03 599.07 13.03 599.07 6.91 603.95 6.91 603.95 0 582.38 0"/><polygon class="cls-2" points="501.03 113.68 494.8 113.68 494.8 153 519.39 153 519.39 151.34 501.03 151.34 501.03 113.68"/><rect class="cls-3" x="612.13" y="113.68" width="6.17" height="39.32"/><polygon class="cls-4" points="644.09 142.06 631.29 113.68 624.46 113.68 626.58 118.39 622.93 153 624.59 153 627.91 121.31 641.57 151.54 657.61 116.14 657.35 153 663.58 153 663.58 113.68 656.95 113.68 644.09 142.06"/><polygon class="cls-5" points="668.73 153 693.33 153 693.33 151.41 674.96 151.41 674.96 134.17 688.15 134.17 688.15 132.51 674.96 132.51 674.96 115.34 693.33 115.34 693.33 113.68 668.73 113.68 668.73 153"/><polygon class="cls-6" points="511.93 107.52 508.49 125.97 516.72 107.52 511.93 107.52"/><polygon class="cls-7" points="578.85 115.34 591.05 115.34 591.05 153 597.28 153 597.28 115.34 609.49 115.34 609.49 113.68 578.85 113.68 578.85 115.34"/><polygon class="cls-8" points="524.72 152.93 549.25 152.93 549.25 151.28 530.88 151.28 530.88 134.17 544.08 134.17 544.08 132.51 530.88 132.51 530.88 115.34 549.25 115.34 549.25 113.68 524.72 113.68 524.72 152.93"/><path class="cls-9" d="M1380.69,142.39v.41c0,2.93,1.72,6.48,10.64,10.31s10,6.45,10,9.22a6.57,6.57,0,0,1,0,1c-.36,2.62-2.08,6.19-9.55,6.19-5.22,0-11-4.85-11-4.85l-1.8,1.75a20.86,20.86,0,0,0,13.19,4.88c12.16,0,13.93-7.77,14.08-10.4v-.4c0-3.56-1.71-7.2-10.63-11s-10-5.72-10-8.49a6.44,6.44,0,0,1,0-1c.35-2.63,2.64-6.2,8.41-6.2,5.22,0,8.3,4.85,8.3,4.85l1.81-1.74a13.41,13.41,0,0,0-10.36-4.88c-11,.05-12.91,7.77-13.06,10.39" transform="translate(-827.31 -18.31)"/><path class="cls-10" d="M1393.64,132h0Z" transform="translate(-827.31 -18.31)"/><path class="cls-11" d="M1525.79,124.77v-4H1527c1.13,0,1.66.54,2,1.88a19.85,19.85,0,0,0,.51,2,5.6,5.6,0,0,1-2,.37,5.9,5.9,0,0,1-1.63-.24m0-8.5a5.44,5.44,0,0,1,1.24-.1c1.32,0,2.22.54,2.22,1.79s-.84,1.84-2.18,1.84h-1.28Zm-4.17,2.94a5.8,5.8,0,1,1,8.93,4.88c-.13-.47-.28-1.07-.45-1.81a2.44,2.44,0,0,0-1.41-2v0a2.54,2.54,0,0,0,1.81-2.46,2.48,2.48,0,0,0-.76-1.85,4,4,0,0,0-2.8-.79,13.88,13.88,0,0,0-2.39.21v8.84a5.79,5.79,0,0,1-2.93-5m-1,0a6.79,6.79,0,1,0,6.78-6.78,6.79,6.79,0,0,0-6.78,6.78" transform="translate(-827.31 -18.31)"/><polygon class="cls-12" points="495.41 114.3 495.41 152.38 518.78 152.38 518.78 151.96 500.41 151.96 500.41 114.3 495.41 114.3"/><rect class="cls-13" x="612.74" y="114.3" width="4.94" height="38.09"/><polygon class="cls-14" points="657.35 114.3 644.09 143.55 630.89 114.3 625.41 114.3 627.21 118.29 623.62 152.38 624.04 152.38 627.53 118.98 641.57 150.05 657.05 115.88 658.23 116.14 657.97 152.38 662.96 152.38 662.96 114.3 657.35 114.3"/><polygon class="cls-15" points="669.34 114.3 669.34 152.38 692.71 152.38 692.71 152.02 674.35 152.02 674.35 133.56 687.54 133.56 687.54 133.13 674.35 133.13 674.35 114.72 692.71 114.72 692.71 114.3 669.34 114.3"/><polygon class="cls-16" points="512.44 108.13 510.05 120.96 515.77 108.13 512.44 108.13"/><polygon class="cls-17" points="579.47 114.3 579.47 114.72 591.67 114.72 591.67 152.38 596.67 152.38 596.67 114.72 608.87 114.72 608.87 114.3 579.47 114.3"/><polygon class="cls-18" points="525.34 114.3 525.34 152.32 548.64 152.32 548.64 151.89 530.27 151.89 530.27 133.56 543.47 133.56 543.47 133.13 530.27 133.13 530.27 114.72 548.64 114.72 548.64 114.3 525.34 114.3"/><path class="cls-19" d="M1381.31,142.39v.41c0,2.29,1.06,5.79,10.26,9.75,8.67,3.73,10.36,6.41,10.36,9.78a7.39,7.39,0,0,1,0,1.09c-.42,3.07-2.51,6.73-10.16,6.73-4.61,0-9.52-3.51-11-4.65l-.92.89a20.39,20.39,0,0,0,12.27,4.31c12.28,0,13.37-8.18,13.47-9.79v-.4c0-3-1.22-6.59-10.26-10.47-8.87-3.82-10.37-5.88-10.37-9.06a7.52,7.52,0,0,1,.06-1.1c.45-3.35,3.42-6.73,9-6.73,4.41,0,7.33,3.17,8.39,4.53l.88-.85a13,13,0,0,0-9.52-4.22c-11.54.06-12.38,8.82-12.44,9.78" transform="translate(-827.31 -18.31)"/><path class="cls-10" d="M1393.64,132h0Z" transform="translate(-827.31 -18.31)"/><path class="cls-20" d="M1530,124.32v-.07c-.11-.35-.22-.79-.34-1.31.14.61.26,1.08.35,1.38m-2-4,.11,0v-.07l-.11,0m1.9-2.35a1.48,1.48,0,0,1,0,.21,1.87,1.87,0,0,0,0-.34,2,2,0,0,0-.39-1.21,2.42,2.42,0,0,1,.37,1.34m-4.71-2v9h0v-9h0" transform="translate(-827.31 -18.31)"/><polygon class="cls-21" points="18.38 156.12 18.38 163.03 23.27 163.03 23.27 169.15 0 169.15 0 227.48 58.33 227.48 58.33 217.54 9.94 217.54 9.94 179.09 48.39 179.09 48.39 193.35 24.2 193.35 24.2 203.28 58.33 203.28 58.33 169.15 35.06 169.15 35.06 163.03 39.95 163.03 39.95 156.12 18.38 156.12"/><polygon class="cls-21" points="104.84 181.93 98.61 181.93 98.61 221.24 123.21 221.24 123.21 219.59 104.84 219.59 104.84 181.93"/><rect class="cls-21" x="215.94" y="181.93" width="6.17" height="39.32"/><polygon class="cls-21" points="247.9 210.3 235.1 181.93 228.27 181.93 230.39 186.63 226.75 221.24 228.4 221.24 231.72 189.55 245.38 219.78 261.42 184.38 261.16 221.24 267.39 221.24 267.39 181.93 260.76 181.93 247.9 210.3"/><polygon class="cls-21" points="272.54 221.24 297.14 221.24 297.14 219.65 278.77 219.65 278.77 202.41 291.96 202.41 291.96 200.75 278.77 200.75 278.77 183.58 297.14 183.58 297.14 181.93 272.54 181.93 272.54 221.24"/><polygon class="cls-21" points="115.74 175.76 112.3 194.21 120.53 175.76 115.74 175.76"/><polygon class="cls-21" points="182.66 183.58 194.86 183.58 194.86 221.24 201.1 221.24 201.1 183.58 213.3 183.58 213.3 181.93 182.66 181.93 182.66 183.58"/><polygon class="cls-21" points="128.53 221.18 153.06 221.18 153.06 219.52 134.7 219.52 134.7 202.41 147.89 202.41 147.89 200.75 134.7 200.75 134.7 183.58 153.06 183.58 153.06 181.93 128.53 181.93 128.53 221.18"/><path class="cls-21" d="M984.51,210.63V211c0,2.94,1.71,6.48,10.63,10.32s10,6.44,10,9.21a6.51,6.51,0,0,1,0,1c-.35,2.62-2.08,6.2-9.55,6.2-5.22,0-11-4.85-11-4.85l-1.81,1.74a20.86,20.86,0,0,0,13.19,4.88c12.17,0,13.93-7.77,14.08-10.39v-.41c0-3.56-1.71-7.2-10.63-11s-10-5.72-10-8.49a6.51,6.51,0,0,1,0-1c.35-2.62,2.64-6.2,8.42-6.2,5.21,0,8.29,4.85,8.29,4.85l1.81-1.74a13.44,13.44,0,0,0-10.36-4.88c-11,0-12.9,7.78-13,10.39" transform="translate(-827.31 -18.31)"/><path class="cls-21" d="M997.45,200.24h0Z" transform="translate(-827.31 -18.31)"/><path class="cls-21" d="M1129.61,193v-4h1.17c1.14,0,1.67.54,2,1.88a19.85,19.85,0,0,0,.51,2,5.6,5.6,0,0,1-2,.37,5.77,5.77,0,0,1-1.62-.23m0-8.51a5.91,5.91,0,0,1,1.23-.1c1.32,0,2.22.55,2.22,1.8,0,1.1-.84,1.83-2.18,1.83h-1.27Zm-4.18,2.94a5.8,5.8,0,1,1,8.93,4.88q-.19-.71-.45-1.8a2.42,2.42,0,0,0-1.41-2v0a2.53,2.53,0,0,0,1.81-2.45,2.44,2.44,0,0,0-.76-1.85,4,4,0,0,0-2.8-.79,14,14,0,0,0-2.39.2v8.84a5.79,5.79,0,0,1-2.93-5m-1,0a6.79,6.79,0,1,0,6.78-6.78,6.79,6.79,0,0,0-6.78,6.78" transform="translate(-827.31 -18.31)"/><polygon class="cls-21" points="99.22 182.54 99.22 220.63 122.59 220.63 122.59 220.2 104.22 220.2 104.22 182.54 99.22 182.54"/><rect class="cls-21" x="216.55" y="182.54" width="4.94" height="38.09"/><polygon class="cls-21" points="261.16 182.54 247.9 211.8 234.7 182.54 229.22 182.54 231.02 186.53 227.43 220.63 227.85 220.63 231.34 187.22 245.38 218.29 260.86 184.13 262.04 184.38 261.78 220.63 266.77 220.63 266.77 182.54 261.16 182.54"/><polygon class="cls-21" points="273.15 182.54 273.15 220.63 296.52 220.63 296.52 220.27 278.16 220.27 278.16 201.8 291.35 201.8 291.35 201.37 278.16 201.37 278.16 182.97 296.52 182.97 296.52 182.54 273.15 182.54"/><polygon class="cls-21" points="116.25 176.37 113.86 189.2 119.58 176.37 116.25 176.37"/><polygon class="cls-21" points="183.28 182.54 183.28 182.97 195.48 182.97 195.48 220.63 200.48 220.63 200.48 182.97 212.68 182.97 212.68 182.54 183.28 182.54"/><polygon class="cls-21" points="129.15 182.54 129.15 220.56 152.45 220.56 152.45 220.13 134.08 220.13 134.08 201.8 147.28 201.8 147.28 201.37 134.08 201.37 134.08 182.97 152.45 182.97 152.45 182.54 129.15 182.54"/><path class="cls-21" d="M985.12,210.63V211c0,2.29,1.06,5.8,10.26,9.75,8.67,3.73,10.36,6.41,10.36,9.78a7.39,7.39,0,0,1,0,1.09c-.41,3.07-2.51,6.73-10.16,6.73-4.61,0-9.51-3.51-11-4.64l-.92.89a20.46,20.46,0,0,0,12.27,4.3c12.28,0,13.38-8.18,13.47-9.78v-.41c0-3-1.22-6.58-10.26-10.47-8.87-3.81-10.37-5.88-10.37-9.06a7.3,7.3,0,0,1,.06-1.09c.45-3.35,3.42-6.74,9-6.74,4.4,0,7.32,3.17,8.38,4.54l.88-.85a13,13,0,0,0-9.52-4.22c-11.54,0-12.38,8.81-12.44,9.77" transform="translate(-827.31 -18.31)"/><path class="cls-21" d="M997.45,200.24h0Z" transform="translate(-827.31 -18.31)"/><path class="cls-21" d="M1133.79,192.56l0-.06c-.1-.36-.21-.8-.34-1.32.14.61.26,1.08.36,1.38m-2-4,.11,0v-.07l-.11,0m1.9-2.34a1.34,1.34,0,0,1,0,.2,1.76,1.76,0,0,0,0-.33,1.93,1.93,0,0,0-.39-1.21,2.37,2.37,0,0,1,.37,1.34m-4.71-2v9h0v-9h0" transform="translate(-827.31 -18.31)"/><polygon class="cls-22" points="18.38 248.47 18.38 255.38 23.27 255.38 23.27 261.5 0 261.5 0 319.83 58.33 319.83 58.33 309.9 9.94 309.9 9.94 271.44 48.39 271.44 48.39 285.7 24.2 285.7 24.2 295.63 58.33 295.63 58.33 261.5 35.06 261.5 35.06 255.38 39.95 255.38 39.95 248.47 18.38 248.47"/><polygon class="cls-23" points="104.84 274.28 98.61 274.28 98.61 313.6 123.21 313.6 123.21 311.94 104.84 311.94 104.84 274.28"/><rect class="cls-24" x="215.94" y="274.28" width="6.17" height="39.32"/><polygon class="cls-25" points="247.9 302.65 235.1 274.28 228.27 274.28 230.39 278.99 226.75 313.6 228.4 313.6 231.72 281.9 245.38 312.14 261.42 276.73 261.16 313.6 267.39 313.6 267.39 274.28 260.76 274.28 247.9 302.65"/><polygon class="cls-26" points="272.54 313.6 297.14 313.6 297.14 312 278.77 312 278.77 294.76 291.96 294.76 291.96 293.11 278.77 293.11 278.77 275.93 297.14 275.93 297.14 274.28 272.54 274.28 272.54 313.6"/><polygon class="cls-27" points="115.74 268.11 112.3 286.56 120.53 268.11 115.74 268.11"/><polygon class="cls-28" points="182.66 275.93 194.86 275.93 194.86 313.6 201.1 313.6 201.1 275.93 213.3 275.93 213.3 274.28 182.66 274.28 182.66 275.93"/><polygon class="cls-29" points="128.53 313.53 153.06 313.53 153.06 311.87 134.7 311.87 134.7 294.76 147.89 294.76 147.89 293.11 134.7 293.11 134.7 275.93 153.06 275.93 153.06 274.28 128.53 274.28 128.53 313.53"/><path class="cls-30" d="M984.51,303v.41c0,2.94,1.71,6.48,10.63,10.32s10,6.44,10,9.21a6.51,6.51,0,0,1,0,1c-.35,2.63-2.08,6.2-9.55,6.2-5.22,0-11-4.85-11-4.85L982.7,327a20.84,20.84,0,0,0,13.19,4.89c12.17,0,13.93-7.78,14.08-10.4v-.41c0-3.56-1.71-7.2-10.63-11s-10-5.72-10-8.49a6.51,6.51,0,0,1,0-1c.35-2.62,2.64-6.2,8.42-6.2,5.21,0,8.29,4.85,8.29,4.85l1.81-1.74a13.44,13.44,0,0,0-10.36-4.88c-11,.06-12.9,7.78-13,10.39" transform="translate(-827.31 -18.31)"/><path class="cls-31" d="M997.45,292.59h0Z" transform="translate(-827.31 -18.31)"/><path class="cls-32" d="M1129.61,285.37v-4h1.17c1.14,0,1.67.55,2,1.88.2.92.37,1.61.51,2a5.8,5.8,0,0,1-3.63.13m0-8.51a5.91,5.91,0,0,1,1.23-.1c1.32,0,2.22.55,2.22,1.8s-.84,1.83-2.18,1.83h-1.27Zm-4.18,2.94a5.8,5.8,0,1,1,8.93,4.88c-.13-.46-.28-1.07-.45-1.8a2.42,2.42,0,0,0-1.41-2v0a2.53,2.53,0,0,0,1.81-2.45,2.44,2.44,0,0,0-.76-1.85,4,4,0,0,0-2.8-.79,14,14,0,0,0-2.39.2v8.84a5.79,5.79,0,0,1-2.93-5m-1,0a6.79,6.79,0,1,0,6.78-6.78,6.79,6.79,0,0,0-6.78,6.78" transform="translate(-827.31 -18.31)"/><polygon class="cls-33" points="99.22 274.89 99.22 312.98 122.59 312.98 122.59 312.55 104.22 312.55 104.22 274.89 99.22 274.89"/><rect class="cls-34" x="216.55" y="274.89" width="4.94" height="38.09"/><polygon class="cls-35" points="261.16 274.89 247.9 304.15 234.7 274.89 229.22 274.89 231.02 278.88 227.43 312.98 227.85 312.98 231.34 279.57 245.38 310.64 260.86 276.48 262.04 276.74 261.78 312.98 266.77 312.98 266.77 274.89 261.16 274.89"/><polygon class="cls-36" points="273.15 274.89 273.15 312.98 296.52 312.98 296.52 312.62 278.16 312.62 278.16 294.15 291.35 294.15 291.35 293.72 278.16 293.72 278.16 275.32 296.52 275.32 296.52 274.89 273.15 274.89"/><polygon class="cls-37" points="116.25 268.73 113.86 281.55 119.58 268.73 116.25 268.73"/><polygon class="cls-38" points="183.28 274.89 183.28 275.32 195.48 275.32 195.48 312.98 200.48 312.98 200.48 275.32 212.68 275.32 212.68 274.89 183.28 274.89"/><polygon class="cls-39" points="129.15 274.89 129.15 312.91 152.45 312.91 152.45 312.49 134.08 312.49 134.08 294.15 147.28 294.15 147.28 293.72 134.08 293.72 134.08 275.32 152.45 275.32 152.45 274.89 129.15 274.89"/><path class="cls-40" d="M985.12,303v.41c0,2.29,1.06,5.8,10.26,9.75,8.67,3.73,10.36,6.41,10.36,9.78a7.39,7.39,0,0,1,0,1.09c-.41,3.07-2.51,6.73-10.16,6.73-4.61,0-9.51-3.5-11-4.64l-.92.89a20.46,20.46,0,0,0,12.27,4.3c12.28,0,13.38-8.18,13.47-9.78v-.41c0-3-1.22-6.58-10.26-10.47-8.87-3.81-10.37-5.88-10.37-9.06a7.3,7.3,0,0,1,.06-1.09c.45-3.35,3.42-6.73,9-6.73,4.4,0,7.32,3.16,8.38,4.53l.88-.85a13,13,0,0,0-9.52-4.22c-11.54.05-12.38,8.81-12.44,9.77" transform="translate(-827.31 -18.31)"/><path class="cls-31" d="M997.45,292.59h0Z" transform="translate(-827.31 -18.31)"/><path class="cls-41" d="M1133.79,284.92l0-.07c-.1-.36-.21-.8-.34-1.32.14.62.26,1.08.36,1.39m-2-4,.11,0v-.06l-.11,0m1.9-2.34a1.27,1.27,0,0,1,0,.2,1.69,1.69,0,0,0,0-.33,1.93,1.93,0,0,0-.39-1.21,2.37,2.37,0,0,1,.37,1.34m-4.71-2v9h0v-9h0" transform="translate(-827.31 -18.31)"/><polygon class="cls-42" points="18.38 40.82 18.38 47.73 23.27 47.73 23.27 53.85 0 53.85 0 112.18 58.33 112.18 58.33 102.24 9.94 102.24 9.94 63.78 48.39 63.78 48.39 78.05 24.2 78.05 24.2 87.98 58.33 87.98 58.33 53.85 35.06 53.85 35.06 47.73 39.95 47.73 39.95 40.82 18.38 40.82"/><polygon class="cls-42" points="104.84 72.86 98.61 72.86 98.61 112.18 123.21 112.18 123.21 110.52 104.84 110.52 104.84 72.86"/><rect class="cls-42" x="215.94" y="72.86" width="6.17" height="39.32"/><polygon class="cls-42" points="247.9 101.24 235.1 72.86 228.27 72.86 230.39 77.57 226.75 112.18 228.4 112.18 231.72 80.49 245.38 110.72 261.42 75.32 261.16 112.18 267.39 112.18 267.39 72.86 260.76 72.86 247.9 101.24"/><polygon class="cls-42" points="272.54 112.18 297.14 112.18 297.14 110.59 278.77 110.59 278.77 93.35 291.96 93.35 291.96 91.69 278.77 91.69 278.77 74.52 297.14 74.52 297.14 72.86 272.54 72.86 272.54 112.18"/><polygon class="cls-42" points="115.74 66.7 112.3 85.15 120.53 66.7 115.74 66.7"/><polygon class="cls-42" points="182.66 74.52 194.86 74.52 194.86 112.18 201.1 112.18 201.1 74.52 213.3 74.52 213.3 72.86 182.66 72.86 182.66 74.52"/><polygon class="cls-42" points="128.53 112.11 153.06 112.11 153.06 110.46 134.7 110.46 134.7 93.35 147.89 93.35 147.89 91.69 134.7 91.69 134.7 74.52 153.06 74.52 153.06 72.86 128.53 72.86 128.53 112.11"/><path class="cls-42" d="M984.51,101.57V102c0,2.93,1.71,6.48,10.63,10.31s10,6.45,10,9.22a6.51,6.51,0,0,1,0,1c-.35,2.62-2.08,6.2-9.55,6.2-5.22,0-11-4.85-11-4.85l-1.81,1.74a20.86,20.86,0,0,0,13.19,4.88c12.17,0,13.93-7.77,14.08-10.39v-.41c0-3.56-1.71-7.2-10.63-11s-10-5.72-10-8.49a6.44,6.44,0,0,1,0-1c.35-2.63,2.64-6.2,8.42-6.2,5.21,0,8.29,4.85,8.29,4.85l1.81-1.74a13.41,13.41,0,0,0-10.36-4.88c-11,0-12.9,7.78-13,10.39" transform="translate(-827.31 -18.31)"/><path class="cls-42" d="M997.45,91.17h0Z" transform="translate(-827.31 -18.31)"/><path class="cls-42" d="M1129.61,84v-4h1.17c1.14,0,1.67.54,2,1.88a19.85,19.85,0,0,0,.51,2,5.6,5.6,0,0,1-2,.37,5.43,5.43,0,0,1-1.62-.24m0-8.5a5.27,5.27,0,0,1,1.23-.1c1.32,0,2.22.55,2.22,1.79s-.84,1.84-2.18,1.84h-1.27Zm-4.18,2.94a5.8,5.8,0,1,1,8.93,4.88c-.13-.47-.28-1.07-.45-1.81a2.42,2.42,0,0,0-1.41-1.95v0a2.54,2.54,0,0,0,1.81-2.46,2.44,2.44,0,0,0-.76-1.85,4,4,0,0,0-2.8-.79,13.88,13.88,0,0,0-2.39.21v8.84a5.79,5.79,0,0,1-2.93-5m-1,0a6.79,6.79,0,1,0,6.78-6.78,6.79,6.79,0,0,0-6.78,6.78" transform="translate(-827.31 -18.31)"/><polygon class="cls-42" points="99.22 73.48 99.22 111.57 122.59 111.57 122.59 111.14 104.22 111.14 104.22 73.48 99.22 73.48"/><rect class="cls-42" x="216.55" y="73.48" width="4.94" height="38.09"/><polygon class="cls-42" points="261.16 73.48 247.9 102.73 234.7 73.48 229.22 73.48 231.02 77.47 227.43 111.57 227.85 111.57 231.34 78.16 245.38 109.23 260.86 75.06 262.04 75.32 261.78 111.57 266.77 111.57 266.77 73.48 261.16 73.48"/><polygon class="cls-42" points="273.15 73.48 273.15 111.57 296.52 111.57 296.52 111.2 278.16 111.2 278.16 92.74 291.35 92.74 291.35 92.31 278.16 92.31 278.16 73.91 296.52 73.91 296.52 73.48 273.15 73.48"/><polygon class="cls-42" points="116.25 67.31 113.86 80.14 119.58 67.31 116.25 67.31"/><polygon class="cls-42" points="183.28 73.48 183.28 73.91 195.48 73.91 195.48 111.57 200.48 111.57 200.48 73.91 212.68 73.91 212.68 73.48 183.28 73.48"/><polygon class="cls-42" points="129.15 73.48 129.15 111.5 152.45 111.5 152.45 111.07 134.08 111.07 134.08 92.74 147.28 92.74 147.28 92.31 134.08 92.31 134.08 73.91 152.45 73.91 152.45 73.48 129.15 73.48"/><path class="cls-42" d="M985.12,101.57V102c0,2.29,1.06,5.8,10.26,9.75,8.67,3.73,10.36,6.41,10.36,9.78a7.39,7.39,0,0,1,0,1.09c-.41,3.07-2.51,6.73-10.16,6.73-4.61,0-9.51-3.51-11-4.65l-.92.89a20.39,20.39,0,0,0,12.27,4.31c12.28,0,13.38-8.18,13.47-9.78v-.41c0-3-1.22-6.58-10.26-10.47-8.87-3.82-10.37-5.88-10.37-9.06a7.3,7.3,0,0,1,.06-1.09c.45-3.36,3.42-6.74,9-6.74,4.4,0,7.32,3.17,8.38,4.53l.88-.85a13,13,0,0,0-9.52-4.22c-11.54.06-12.38,8.82-12.44,9.78" transform="translate(-827.31 -18.31)"/><path class="cls-42" d="M997.45,91.17h0Z" transform="translate(-827.31 -18.31)"/><path class="cls-42" d="M1133.79,83.5l0-.07c-.1-.35-.21-.79-.34-1.31.14.61.26,1.08.36,1.38m-2-4,.11,0v-.07l-.11,0m1.9-2.35a1.48,1.48,0,0,1,0,.21,1.79,1.79,0,0,0,0-.34,1.92,1.92,0,0,0-.39-1.2,2.36,2.36,0,0,1,.37,1.33m-4.71-2v9h0v-9h0" transform="translate(-827.31 -18.31)"/><image width="213" height="153" transform="translate(455.73 248.47)" xlink:href="../../../workSpace/Developpement/lestime/ecommerce/images/icons/logoGold.png"/></svg>